Coordinates
version=1
nRows=7
nColumns=63
inDegrees=yes

Units are S.I. units (second, meters, Newtons, ...)
If the header above contains a line with 'inDegrees', this indicates whether rotational values are in degrees (yes) or radians (no).

endheader
time	pelvis_tilt	pelvis_list	pelvis_rotation	pelvis_tx	pelvis_ty	pelvis_tz	hip_flexion_r	hip_adduction_r	hip_rotation_r	knee_angle_r	knee_angle_r_beta	ankle_angle_r	subtalar_angle_r	mtp_angle_r	hip_flexion_l	hip_adduction_l	hip_rotation_l	knee_angle_l	knee_angle_l_beta	ankle_angle_l	subtalar_angle_l	mtp_angle_l	L5_S1_Flex_Ext	L5_S1_Lat_Bending	L5_S1_axial_rotation	L4_L5_Flex_Ext	L4_L5_Lat_Bending	L4_L5_axial_rotation	L3_L4_Flex_Ext	L3_L4_Lat_Bending	L3_L4_axial_rotation	L2_L3_Flex_Ext	L2_L3_Lat_Bending	L2_L3_axial_rotation	L1_L2_Flex_Ext	L1_L2_Lat_Bending	L1_L2_axial_rotation	L1_T12_Flex_Ext	L1_T12_Lat_Bending	L1_T12_axial_rotation	Abs_r3	Abs_r2	Abs_r1	Abs_t1	Abs_t2	neck_flexion	neck_bending	neck_rotation	arm_flex_r	arm_add_r	arm_rot_r	elbow_flex_r	pro_sup_r	wrist_flex_r	wrist_dev_r	arm_flex_l	arm_add_l	arm_rot_l	elbow_flex_l	pro_sup_l	wrist_flex_l	wrist_dev_l
      9.18604651	     -2.15181145	      9.06389373	    102.54916964	      0.14592799	      0.95793750	      0.55117550	     -7.46822397	     -2.18263797	    -18.57920602	      6.86475783	      0.11981263	     29.47175609	     17.19462248	      0.00000000	     -5.70607304	      1.75736879	     11.19721623	      2.20325407	      0.03845404	     27.35223630	     -4.78216357	      0.00000000	      0.44548433	      0.17849412	      1.72109452	      0.82730895	      0.23739718	      1.82866293	      0.73188620	      0.43399060	      1.82866293	      0.50914404	      0.43399060	      1.50595771	      0.41367675	      0.36398521	      1.39838930	      0.25454974	      0.27648739	      1.29082089	      3.18205001	      2.01916117	      9.57221140	      0.00000000	      0.00000000	      6.31917448	     -1.58130785	     19.99952857	     69.55608813	      2.40904467	     19.87917817	     85.49479890	     89.09311300	    -10.12399848	     -3.13122618	     52.28806524	    -12.53447514	     -1.38783572	    111.25581611	     87.93999373	     -6.43025503	    -21.50599284
      9.20930233	     -2.11118591	      9.04228423	    102.47857083	      0.14674761	      0.95727497	      0.55134134	     -7.41183153	     -2.19466295	    -18.43436595	      6.98082019	      0.12183830	     29.71680797	     17.30223387	      0.00000000	     -5.66690692	      1.70461318	     11.27657888	      2.17354179	      0.03793546	     27.37828477	     -5.12931197	      0.00000000	      0.44883993	      0.15229903	      1.79851456	      0.83354063	      0.20255771	      1.91092172	      0.73739912	      0.37029987	      1.91092172	      0.51297916	      0.37029987	      1.57370024	      0.41679276	      0.31056819	      1.46129308	      0.25646714	      0.23591120	      1.34888592	      3.20601874	      1.72283712	     10.00279845	      0.00000000	      0.00000000	      7.26192883	     -2.10387056	     16.72816009	     69.40952258	      1.74263283	     19.55728149	     85.52856375	     89.10871343	    -11.04154083	     -3.58209834	     52.22407394	    -12.15971677	     -0.46072193	    110.77298231	     87.96481056	     -6.64250136	    -22.01863026
      9.23255814	     -2.00917905	      8.93271896	    102.33729927	      0.14728333	      0.95645461	      0.55165948	     -7.23906337	     -2.17890786	    -18.21814835	      7.06829627	      0.12336504	     29.82554317	     17.40915042	      0.00000000	     -5.51401726	      1.64243315	     11.22089276	      2.16826987	      0.03784345	     27.43169491	     -5.28000308	      0.00000000	      0.45008408	      0.15578172	      1.81003813	      0.83585115	      0.20718969	      1.92316551	      0.73944314	      0.37876768	      1.92316551	      0.51440110	      0.37876768	      1.58378336	      0.41794808	      0.31767009	      1.47065598	      0.25717804	      0.24130589	      1.35752860	      3.21490558	      1.76223401	     10.06688907	      0.00000000	      0.00000000	      8.27381339	     -2.44910347	     15.72458304	     69.67996281	      1.46329087	     20.05997297	     85.24432667	     89.15993102	    -10.82055118	     -3.87019662	     52.15604524	    -12.18821364	      0.07138313	    110.47049677	     87.90142492	     -6.72731025	    -22.12206394
      9.25581395	     -2.01635877	      8.88963227	    101.98541695	      0.14833401	      0.95578787	      0.55182238	     -7.10796926	     -2.27461192	    -17.73076477	      7.22215013	      0.12605030	     29.82021213	     17.50068806	      0.00000000	     -5.51360327	      1.68933626	     11.17468705	      2.12241850	      0.03704319	     27.34867493	     -5.73218402	      0.00000000	      0.44743520	      0.13923068	      1.86550732	      0.83093191	      0.18517681	      1.98210153	      0.73509129	      0.33852548	      1.98210153	      0.51137369	      0.33852548	      1.63231891	      0.41548833	      0.28391921	      1.51572470	      0.25566447	      0.21566833	      1.39913049	      3.19598488	      1.57500534	     10.37539208	      0.00000000	      0.00000000	      8.86596235	     -3.08383860	     13.42732167	     69.85626176	      1.24339141	     20.52406242	     84.75863242	     89.20346399	     -9.47539055	     -4.86410854	     52.49289308	    -12.09181781	      1.04156789	    109.70236114	     87.69199271	     -7.61266602	    -22.04863836
      9.27906977	     -2.09853722	      8.83242954	    101.81300637	      0.14919588	      0.95509149	      0.55250654	     -6.95377962	     -2.42751367	    -17.50523657	      7.43410848	      0.12974967	     29.70233050	     17.47976603	      0.00000000	     -5.43484315	      1.80482725	     11.07508358	      2.20060758	      0.03840785	     27.29715906	     -5.94187321	      0.00000000	      0.42577831	      0.13128099	      1.82903106	      0.79071290	      0.17460372	      1.94334550	      0.69951119	      0.31919661	      1.94334550	      0.48662203	      0.31919661	      1.60040217	      0.39537774	      0.26770820	      1.48608773	      0.24328973	      0.20335426	      1.37177329	      3.04129190	      1.48507685	     10.17252203	      0.00000000	      0.00000000	      9.57656799	     -3.60054148	     13.03862446	     70.33089605	      1.41721071	     21.69963836	     84.17828843	     89.23863567	     -8.24098355	     -4.96163582	     52.77847739	    -12.36198471	      1.35067693	    109.22265232	     87.32937161	     -7.64450721	    -21.74916812
      9.30232558	     -2.18627778	      8.81039072	    101.51112923	      0.15045100	      0.95455752	      0.55310578	     -6.79849099	     -2.57732597	    -17.12802324	      7.72379216	      0.13480560	     29.53878996	     17.46121089	      0.00000000	     -5.40795357	      1.90705815	     10.93939552	      2.31280745	      0.04036610	     27.18026499	     -6.25802809	      0.00000000	      0.40617968	      0.11764763	      1.82329624	      0.75431628	      0.15647135	      1.93725226	      0.66731259	      0.28604844	      1.93725226	      0.46422275	      0.28604844	      1.59538421	      0.37717845	      0.23990704	      1.48142820	      0.23209107	      0.18223618	      1.36747218	      2.90130082	      1.33085350	     10.14062671	      0.00000000	      0.00000000	      9.94775191	     -3.99206563	     12.64540279	     70.64172874	      1.74077937	     22.40507483	     83.54612469	     89.26922384	     -5.31988122	     -5.13144309	     52.97599095	    -12.52989856	      1.49672572	    108.86851808	     86.65373978	     -7.22836420	    -21.32342247
      9.32558140	     -2.29684602	      8.81124250	    101.34736583	      0.15156463	      0.95422597	      0.55387058	     -6.70340407	     -2.70309611	    -16.90789352	      7.93531237	      0.13849733	     29.41457848	     17.42956868	      0.00000000	     -5.37016493	      2.00137920	     10.81925712	      2.46914921	      0.04309478	     27.06206567	     -6.34431105	      0.00000000	      0.38785439	      0.09500259	      1.82310717	      0.72028439	      0.12635344	      1.93705137	      0.63720598	      0.23098929	      1.93705137	      0.44327878	      0.23098929	      1.59521877	      0.36016159	      0.19372927	      1.48127458	      0.22162000	      0.14715900	      1.36733038	      2.77040513	      1.07468824	     10.13957515	      0.00000000	      0.00000000	      9.93704649	     -3.82301748	     12.22981237	     70.92944512	      1.86683275	     23.27225664	     83.18820405	     89.27235914	     -3.98875675	     -4.89093200	     53.19687371	    -12.61080738	      1.66035742	    108.51430458	     86.04168672	     -6.64902039	    -21.00070488
